<svg viewBox="-16 -32 880 192" width="880" height="192" xmlns="http://www.w3.org/2000/svg"><desc>Generated with https://github.com/Platane/snk</desc><style>:root{--cb:#1b1f230a;--cs:orange;--ce:#bfd6f6;--c0:#bfd6f6;--c1:#8dbdff;--c2:#64a1f4;--c3:#4b91f1;--c4:#3c7dd9}.c{shape-rendering:geometricPrecision;fill:var(--ce);stroke-width:1px;stroke:var(--cb);animation:none 22700ms linear infinite;width:12px;height:12px}@keyframes c0{18.93%{fill:var(--c1)}18.95%,100%{fill:var(--ce)}}.c.c0{fill:var(--c1);animation-name:c0}@keyframes c1{57.26%{fill:var(--c2)}57.28%,100%{fill:var(--ce)}}.c.c1{fill:var(--c2);animation-name:c1}@keyframes c2{56.82%{fill:var(--c2)}56.84%,100%{fill:var(--ce)}}.c.c2{fill:var(--c2);animation-name:c2}@keyframes c3{74.88%{fill:var(--c4)}74.9%,100%{fill:var(--ce)}}.c.c3{fill:var(--c4);animation-name:c3}@keyframes c4{77.96%{fill:var(--c4)}77.98%,100%{fill:var(--ce)}}.c.c4{fill:var(--c4);animation-name:c4}@keyframes c5{20.69%{fill:var(--c1)}20.71%,100%{fill:var(--ce)}}.c.c5{fill:var(--c1);animation-name:c5}@keyframes c6{23.78%{fill:var(--c1)}23.8%,100%{fill:var(--ce)}}.c.c6{fill:var(--c1);animation-name:c6}@keyframes c7{24.22%{fill:var(--c1)}24.24%,100%{fill:var(--ce)}}.c.c7{fill:var(--c1);animation-name:c7}@keyframes c8{55.5%{fill:var(--c2)}55.52%,100%{fill:var(--ce)}}.c.c8{fill:var(--c2);animation-name:c8}@keyframes c9{59.46%{fill:var(--c3)}59.48%,100%{fill:var(--ce)}}.c.c9{fill:var(--c3);animation-name:c9}@keyframes ca{73.12%{fill:var(--c4)}73.14%,100%{fill:var(--ce)}}.c.ca{fill:var(--c4);animation-name:ca}@keyframes cb{79.73%{fill:var(--c4)}79.75%,100%{fill:var(--ce)}}.c.cb{fill:var(--c4);animation-name:cb}@keyframes cc{53.73%{fill:var(--c2)}53.75%,100%{fill:var(--ce)}}.c.cc{fill:var(--c2);animation-name:cc}@keyframes cd{43.16%{fill:var(--c2)}43.18%,100%{fill:var(--ce)}}.c.cd{fill:var(--c2);animation-name:cd}@keyframes ce{43.6%{fill:var(--c2)}43.62%,100%{fill:var(--ce)}}.c.ce{fill:var(--c2);animation-name:ce}@keyframes cf{27.74%{fill:var(--c1)}27.76%,100%{fill:var(--ce)}}.c.cf{fill:var(--c1);animation-name:cf}@keyframes cg{28.62%{fill:var(--c1)}28.64%,100%{fill:var(--ce)}}.c.cg{fill:var(--c1);animation-name:cg}@keyframes ch{42.28%{fill:var(--c2)}42.3%,100%{fill:var(--ce)}}.c.ch{fill:var(--c2);animation-name:ch}@keyframes ci{41.84%{fill:var(--c1)}41.86%,100%{fill:var(--ce)}}.c.ci{fill:var(--c1);animation-name:ci}@keyframes cj{44.92%{fill:var(--c2)}44.94%,100%{fill:var(--ce)}}.c.cj{fill:var(--c2);animation-name:cj}@keyframes ck{47.13%{fill:var(--c2)}47.15%,100%{fill:var(--ce)}}.c.ck{fill:var(--c2);animation-name:ck}@keyframes cl{29.95%{fill:var(--c1)}29.97%,100%{fill:var(--ce)}}.c.cl{fill:var(--c1);animation-name:cl}@keyframes cm{29.51%{fill:var(--c1)}29.53%,100%{fill:var(--ce)}}.c.cm{fill:var(--c1);animation-name:cm}@keyframes cn{66.95%{fill:var(--c3)}66.97%,100%{fill:var(--ce)}}.c.cn{fill:var(--c3);animation-name:cn}@keyframes co{67.39%{fill:var(--c4)}67.41%,100%{fill:var(--ce)}}.c.co{fill:var(--c4);animation-name:co}@keyframes cp{45.8%{fill:var(--c2)}45.82%,100%{fill:var(--ce)}}.c.cp{fill:var(--c2);animation-name:cp}@keyframes cq{32.15%{fill:var(--c1)}32.17%,100%{fill:var(--ce)}}.c.cq{fill:var(--c1);animation-name:cq}@keyframes cr{46.69%{fill:var(--c2)}46.71%,100%{fill:var(--ce)}}.c.cr{fill:var(--c2);animation-name:cr}@keyframes cs{63.43%{fill:var(--c3)}63.45%,100%{fill:var(--ce)}}.c.cs{fill:var(--c3);animation-name:cs}@keyframes ct{40.08%{fill:var(--c1)}40.1%,100%{fill:var(--ce)}}.c.ct{fill:var(--c1);animation-name:ct}@keyframes cu{39.64%{fill:var(--c1)}39.66%,100%{fill:var(--ce)}}.c.cu{fill:var(--c1);animation-name:cu}@keyframes cv{68.27%{fill:var(--c4)}68.29%,100%{fill:var(--ce)}}.c.cv{fill:var(--c4);animation-name:cv}@keyframes cw{32.59%{fill:var(--c1)}32.61%,100%{fill:var(--ce)}}.c.cw{fill:var(--c1);animation-name:cw}@keyframes cx{69.15%{fill:var(--c4)}69.17%,100%{fill:var(--ce)}}.c.cx{fill:var(--c4);animation-name:cx}@keyframes cy{69.59%{fill:var(--c4)}69.61%,100%{fill:var(--ce)}}.c.cy{fill:var(--c4);animation-name:cy}@keyframes cz{34.79%{fill:var(--c1)}34.81%,100%{fill:var(--ce)}}.c.cz{fill:var(--c1);animation-name:cz}@keyframes c10{39.2%{fill:var(--c1)}39.22%,100%{fill:var(--ce)}}.c.c10{fill:var(--c1);animation-name:c10}@keyframes c11{49.33%{fill:var(--c2)}49.35%,100%{fill:var(--ce)}}.c.c11{fill:var(--c2);animation-name:c11}@keyframes c12{33.03%{fill:var(--c1)}33.05%,100%{fill:var(--ce)}}.c.c12{fill:var(--c1);animation-name:c12}@keyframes c13{33.91%{fill:var(--c1)}33.93%,100%{fill:var(--ce)}}.c.c13{fill:var(--c1);animation-name:c13}.u{transform-origin:0 0;transform:scale(0,1);animation:none linear 22700ms infinite}@keyframes u0{18.93%{transform:scale(0.000,1)}18.95%,20.69%{transform:scale(0.059,1)}20.71%,23.78%{transform:scale(0.118,1)}23.8%,24.22%{transform:scale(0.176,1)}24.24%,27.74%{transform:scale(0.235,1)}27.76%,28.62%{transform:scale(0.294,1)}28.64%,29.51%{transform:scale(0.353,1)}29.53%,29.95%{transform:scale(0.412,1)}29.97%,32.15%{transform:scale(0.471,1)}32.17%,32.59%{transform:scale(0.529,1)}32.61%,33.03%{transform:scale(0.588,1)}33.05%,33.91%{transform:scale(0.647,1)}33.93%,34.79%{transform:scale(0.706,1)}34.81%,39.2%{transform:scale(0.765,1)}39.22%,39.64%{transform:scale(0.824,1)}39.66%,40.08%{transform:scale(0.882,1)}40.1%,41.84%{transform:scale(0.941,1)}41.86%,100%{transform:scale(1.000,1)}}.u.u0{fill:var(--c1);animation-name:u0;transform-origin:0.0px 0}@keyframes u1{42.28%{transform:scale(0.000,1)}42.3%,43.16%{transform:scale(0.083,1)}43.18%,43.6%{transform:scale(0.167,1)}43.62%,44.92%{transform:scale(0.250,1)}44.94%,45.8%{transform:scale(0.333,1)}45.82%,46.69%{transform:scale(0.417,1)}46.71%,47.13%{transform:scale(0.500,1)}47.15%,49.33%{transform:scale(0.583,1)}49.35%,53.73%{transform:scale(0.667,1)}53.75%,55.5%{transform:scale(0.750,1)}55.52%,56.82%{transform:scale(0.833,1)}56.84%,57.26%{transform:scale(0.917,1)}57.28%,100%{transform:scale(1.000,1)}}.u.u1{fill:var(--c2);animation-name:u1;transform-origin:360.4px 0}@keyframes u2{59.46%{transform:scale(0.000,1)}59.48%,63.43%{transform:scale(0.333,1)}63.45%,66.95%{transform:scale(0.667,1)}66.97%,100%{transform:scale(1.000,1)}}.u.u2{fill:var(--c3);animation-name:u2;transform-origin:614.8px 0}@keyframes u3{67.39%{transform:scale(0.000,1)}67.41%,68.27%{transform:scale(0.125,1)}68.29%,69.15%{transform:scale(0.250,1)}69.17%,69.59%{transform:scale(0.375,1)}69.61%,73.12%{transform:scale(0.500,1)}73.14%,74.88%{transform:scale(0.625,1)}74.9%,77.96%{transform:scale(0.750,1)}77.98%,79.73%{transform:scale(0.875,1)}79.75%,100%{transform:scale(1.000,1)}}.u.u3{fill:var(--c4);animation-name:u3;transform-origin:678.4px 0}.s{shape-rendering:geometricPrecision;fill:var(--cs);animation:none linear 22700ms infinite}@keyframes s0{0%,99.56%{transform:translate(0px,-16px)}0.44%{transform:translate(0px,0px)}17.62%{transform:translate(624px,0px)}18.94%{transform:translate(624px,48px)}19.38%{transform:translate(640px,48px)}20.7%{transform:translate(640px,96px)}21.15%{transform:translate(656px,96px)}23.79%{transform:translate(656px,0px)}24.67%{transform:translate(688px,0px)}25.11%{transform:translate(688px,16px)}25.55%{transform:translate(704px,16px)}25.99%{transform:translate(704px,32px)}26.43%{transform:translate(720px,32px)}27.75%{transform:translate(720px,80px)}28.19%{transform:translate(736px,80px)}28.63%{transform:translate(736px,96px)}29.52%{transform:translate(768px,96px)}29.96%{transform:translate(768px,80px)}30.4%{transform:translate(752px,80px)}31.28%{transform:translate(752px,48px)}33.04%,48.9%{transform:translate(816px,48px)}34.36%{transform:translate(816px,96px)}34.8%{transform:translate(800px,96px)}35.24%{transform:translate(800px,112px)}36.12%{transform:translate(832px,112px)}38.77%{transform:translate(832px,16px)}39.65%,67.84%{transform:translate(800px,16px)}40.53%{transform:translate(800px,-16px)}41.41%{transform:translate(768px,-16px)}41.85%,66.52%{transform:translate(768px,0px)}43.17%{transform:translate(720px,0px)}43.61%{transform:translate(720px,16px)}44.93%{transform:translate(768px,16px)}45.37%,65.64%{transform:translate(768px,32px)}45.81%,65.2%{transform:translate(784px,32px)}46.7%{transform:translate(784px,64px)}47.14%{transform:translate(768px,64px)}47.58%{transform:translate(768px,48px)}49.34%{transform:translate(816px,32px)}49.78%{transform:translate(832px,32px)}50.22%{transform:translate(832px,48px)}54.63%{transform:translate(672px,48px)}55.51%{transform:translate(672px,80px)}56.83%,75.33%{transform:translate(624px,80px)}57.27%{transform:translate(624px,64px)}58.59%{transform:translate(672px,64px)}59.91%{transform:translate(672px,112px)}63%{transform:translate(784px,112px)}66.96%{transform:translate(784px,0px)}67.4%{transform:translate(784px,16px)}69.6%{transform:translate(800px,80px)}72.69%{transform:translate(688px,80px)}73.13%{transform:translate(688px,96px)}74.89%{transform:translate(624px,96px)}75.77%{transform:translate(640px,80px)}77.97%{transform:translate(640px,0px)}79.74%{transform:translate(704px,0px)}80.18%{transform:translate(704px,-16px)}}.s.s0{transform:translate(0px,-16px);animation-name:s0}@keyframes s1{0%,99.56%{transform:translate(16px,-16px)}0.44%{transform:translate(0px,-16px)}0.88%{transform:translate(0px,0px)}18.06%{transform:translate(624px,0px)}19.38%{transform:translate(624px,48px)}19.82%{transform:translate(640px,48px)}21.15%{transform:translate(640px,96px)}21.59%{transform:translate(656px,96px)}24.23%{transform:translate(656px,0px)}25.11%{transform:translate(688px,0px)}25.55%{transform:translate(688px,16px)}25.99%{transform:translate(704px,16px)}26.43%{transform:translate(704px,32px)}26.87%{transform:translate(720px,32px)}28.19%{transform:translate(720px,80px)}28.63%{transform:translate(736px,80px)}29.07%{transform:translate(736px,96px)}29.96%{transform:translate(768px,96px)}30.4%{transform:translate(768px,80px)}30.84%{transform:translate(752px,80px)}31.72%{transform:translate(752px,48px)}33.48%,49.34%{transform:translate(816px,48px)}34.8%{transform:translate(816px,96px)}35.24%{transform:translate(800px,96px)}35.68%{transform:translate(800px,112px)}36.56%{transform:translate(832px,112px)}39.21%{transform:translate(832px,16px)}40.09%,68.28%{transform:translate(800px,16px)}40.97%{transform:translate(800px,-16px)}41.85%{transform:translate(768px,-16px)}42.29%,66.96%{transform:translate(768px,0px)}43.61%{transform:translate(720px,0px)}44.05%{transform:translate(720px,16px)}45.37%{transform:translate(768px,16px)}45.81%,66.08%{transform:translate(768px,32px)}46.26%,65.64%{transform:translate(784px,32px)}47.14%{transform:translate(784px,64px)}47.58%{transform:translate(768px,64px)}48.02%{transform:translate(768px,48px)}49.78%{transform:translate(816px,32px)}50.22%{transform:translate(832px,32px)}50.66%{transform:translate(832px,48px)}55.07%{transform:translate(672px,48px)}55.95%{transform:translate(672px,80px)}57.27%,75.77%{transform:translate(624px,80px)}57.71%{transform:translate(624px,64px)}59.03%{transform:translate(672px,64px)}60.35%{transform:translate(672px,112px)}63.44%{transform:translate(784px,112px)}67.4%{transform:translate(784px,0px)}67.84%{transform:translate(784px,16px)}70.04%{transform:translate(800px,80px)}73.13%{transform:translate(688px,80px)}73.57%{transform:translate(688px,96px)}75.33%{transform:translate(624px,96px)}76.21%{transform:translate(640px,80px)}78.41%{transform:translate(640px,0px)}80.18%{transform:translate(704px,0px)}80.62%{transform:translate(704px,-16px)}}.s.s1{transform:translate(16px,-16px);animation-name:s1}@keyframes s2{0%,99.56%{transform:translate(32px,-16px)}0.88%{transform:translate(0px,-16px)}1.32%{transform:translate(0px,0px)}18.5%{transform:translate(624px,0px)}19.82%{transform:translate(624px,48px)}20.26%{transform:translate(640px,48px)}21.59%{transform:translate(640px,96px)}22.03%{transform:translate(656px,96px)}24.67%{transform:translate(656px,0px)}25.55%{transform:translate(688px,0px)}25.99%{transform:translate(688px,16px)}26.43%{transform:translate(704px,16px)}26.87%{transform:translate(704px,32px)}27.31%{transform:translate(720px,32px)}28.63%{transform:translate(720px,80px)}29.07%{transform:translate(736px,80px)}29.52%{transform:translate(736px,96px)}30.4%{transform:translate(768px,96px)}30.84%{transform:translate(768px,80px)}31.28%{transform:translate(752px,80px)}32.16%{transform:translate(752px,48px)}33.92%,49.78%{transform:translate(816px,48px)}35.24%{transform:translate(816px,96px)}35.68%{transform:translate(800px,96px)}36.12%{transform:translate(800px,112px)}37%{transform:translate(832px,112px)}39.65%{transform:translate(832px,16px)}40.53%,68.72%{transform:translate(800px,16px)}41.41%{transform:translate(800px,-16px)}42.29%{transform:translate(768px,-16px)}42.73%,67.4%{transform:translate(768px,0px)}44.05%{transform:translate(720px,0px)}44.49%{transform:translate(720px,16px)}45.81%{transform:translate(768px,16px)}46.26%,66.52%{transform:translate(768px,32px)}46.7%,66.08%{transform:translate(784px,32px)}47.58%{transform:translate(784px,64px)}48.02%{transform:translate(768px,64px)}48.46%{transform:translate(768px,48px)}50.22%{transform:translate(816px,32px)}50.66%{transform:translate(832px,32px)}51.1%{transform:translate(832px,48px)}55.51%{transform:translate(672px,48px)}56.39%{transform:translate(672px,80px)}57.71%,76.21%{transform:translate(624px,80px)}58.15%{transform:translate(624px,64px)}59.47%{transform:translate(672px,64px)}60.79%{transform:translate(672px,112px)}63.88%{transform:translate(784px,112px)}67.84%{transform:translate(784px,0px)}68.28%{transform:translate(784px,16px)}70.48%{transform:translate(800px,80px)}73.57%{transform:translate(688px,80px)}74.01%{transform:translate(688px,96px)}75.77%{transform:translate(624px,96px)}76.65%{transform:translate(640px,80px)}78.85%{transform:translate(640px,0px)}80.62%{transform:translate(704px,0px)}81.06%{transform:translate(704px,-16px)}}.s.s2{transform:translate(32px,-16px);animation-name:s2}@keyframes s3{0%,99.56%{transform:translate(48px,-16px)}1.32%{transform:translate(0px,-16px)}1.76%{transform:translate(0px,0px)}18.94%{transform:translate(624px,0px)}20.26%{transform:translate(624px,48px)}20.7%{transform:translate(640px,48px)}22.03%{transform:translate(640px,96px)}22.47%{transform:translate(656px,96px)}25.11%{transform:translate(656px,0px)}25.99%{transform:translate(688px,0px)}26.43%{transform:translate(688px,16px)}26.87%{transform:translate(704px,16px)}27.31%{transform:translate(704px,32px)}27.75%{transform:translate(720px,32px)}29.07%{transform:translate(720px,80px)}29.52%{transform:translate(736px,80px)}29.96%{transform:translate(736px,96px)}30.84%{transform:translate(768px,96px)}31.28%{transform:translate(768px,80px)}31.72%{transform:translate(752px,80px)}32.6%{transform:translate(752px,48px)}34.36%,50.22%{transform:translate(816px,48px)}35.68%{transform:translate(816px,96px)}36.12%{transform:translate(800px,96px)}36.56%{transform:translate(800px,112px)}37.44%{transform:translate(832px,112px)}40.09%{transform:translate(832px,16px)}40.97%,69.16%{transform:translate(800px,16px)}41.85%{transform:translate(800px,-16px)}42.73%{transform:translate(768px,-16px)}43.17%,67.84%{transform:translate(768px,0px)}44.49%{transform:translate(720px,0px)}44.93%{transform:translate(720px,16px)}46.26%{transform:translate(768px,16px)}46.7%,66.96%{transform:translate(768px,32px)}47.14%,66.52%{transform:translate(784px,32px)}48.02%{transform:translate(784px,64px)}48.46%{transform:translate(768px,64px)}48.9%{transform:translate(768px,48px)}50.66%{transform:translate(816px,32px)}51.1%{transform:translate(832px,32px)}51.54%{transform:translate(832px,48px)}55.95%{transform:translate(672px,48px)}56.83%{transform:translate(672px,80px)}58.15%,76.65%{transform:translate(624px,80px)}58.59%{transform:translate(624px,64px)}59.91%{transform:translate(672px,64px)}61.23%{transform:translate(672px,112px)}64.32%{transform:translate(784px,112px)}68.28%{transform:translate(784px,0px)}68.72%{transform:translate(784px,16px)}70.93%{transform:translate(800px,80px)}74.01%{transform:translate(688px,80px)}74.45%{transform:translate(688px,96px)}76.21%{transform:translate(624px,96px)}77.09%{transform:translate(640px,80px)}79.3%{transform:translate(640px,0px)}81.06%{transform:translate(704px,0px)}81.5%{transform:translate(704px,-16px)}}.s.s3{transform:translate(48px,-16px);animation-name:s3}</style><rect class="c" x="2" y="2" rx="2" ry="2"/><rect class="c" x="2" y="18" rx="2" ry="2"/><rect class="c" x="2" y="34" rx="2" ry="2"/><rect class="c" x="2" y="50" rx="2" ry="2"/><rect class="c" x="2" y="66" rx="2" ry="2"/><rect class="c" x="2" y="82" rx="2" ry="2"/><rect class="c" x="2" y="98" rx="2" ry="2"/><rect class="c" x="18" y="2" rx="2" ry="2"/><rect class="c" x="18" y="18" rx="2" ry="2"/><rect class="c" x="18" y="34" rx="2" ry="2"/><rect class="c" x="18" y="50" rx="2" ry="2"/><rect class="c" x="18" y="66" rx="2" ry="2"/><rect class="c" x="18" y="82" rx="2" ry="2"/><rect class="c" x="18" y="98" rx="2" ry="2"/><rect class="c" x="34" y="2" rx="2" ry="2"/><rect class="c" x="34" y="18" rx="2" ry="2"/><rect class="c" x="34" y="34" rx="2" ry="2"/><rect class="c" x="34" y="50" rx="2" ry="2"/><rect class="c" x="34" y="66" rx="2" ry="2"/><rect class="c" x="34" y="82" rx="2" ry="2"/><rect class="c" x="34" y="98" rx="2" ry="2"/><rect class="c" x="50" y="2" rx="2" ry="2"/><rect class="c" x="50" y="18" rx="2" ry="2"/><rect class="c" x="50" y="34" rx="2" ry="2"/><rect class="c" x="50" y="50" rx="2" ry="2"/><rect class="c" x="50" y="66" rx="2" ry="2"/><rect class="c" x="50" y="82" rx="2" ry="2"/><rect class="c" x="50" y="98" rx="2" ry="2"/><rect class="c" x="66" y="2" rx="2" ry="2"/><rect class="c" x="66" y="18" rx="2" ry="2"/><rect class="c" x="66" y="34" rx="2" ry="2"/><rect class="c" x="66" y="50" rx="2" ry="2"/><rect class="c" x="66" y="66" rx="2" ry="2"/><rect class="c" x="66" y="82" rx="2" ry="2"/><rect class="c" x="66" y="98" rx="2" ry="2"/><rect class="c" x="82" y="2" rx="2" ry="2"/><rect class="c" x="82" y="18" rx="2" ry="2"/><rect class="c" x="82" y="34" rx="2" ry="2"/><rect class="c" x="82" y="50" rx="2" ry="2"/><rect class="c" x="82" y="66" rx="2" ry="2"/><rect class="c" x="82" y="82" rx="2" ry="2"/><rect class="c" x="82" y="98" rx="2" ry="2"/><rect class="c" x="98" y="2" rx="2" ry="2"/><rect class="c" x="98" y="18" rx="2" ry="2"/><rect class="c" x="98" y="34" rx="2" ry="2"/><rect class="c" x="98" y="50" rx="2" ry="2"/><rect class="c" x="98" y="66" rx="2" ry="2"/><rect class="c" x="98" y="82" rx="2" ry="2"/><rect class="c" x="98" y="98" rx="2" ry="2"/><rect class="c" x="114" y="2" rx="2" ry="2"/><rect class="c" x="114" y="18" rx="2" ry="2"/><rect class="c" x="114" y="34" rx="2" ry="2"/><rect class="c" x="114" y="50" rx="2" ry="2"/><rect class="c" x="114" y="66" rx="2" ry="2"/><rect class="c" x="114" y="82" rx="2" ry="2"/><rect class="c" x="114" y="98" rx="2" ry="2"/><rect class="c" x="130" y="2" rx="2" ry="2"/><rect class="c" x="130" y="18" rx="2" ry="2"/><rect class="c" x="130" y="34" rx="2" ry="2"/><rect class="c" x="130" y="50" rx="2" ry="2"/><rect class="c" x="130" y="66" rx="2" ry="2"/><rect class="c" x="130" y="82" rx="2" ry="2"/><rect class="c" x="130" y="98" rx="2" ry="2"/><rect class="c" x="146" y="2" rx="2" ry="2"/><rect class="c" x="146" y="18" rx="2" ry="2"/><rect class="c" x="146" y="34" rx="2" ry="2"/><rect class="c" x="146" y="50" rx="2" ry="2"/><rect class="c" x="146" y="66" rx="2" ry="2"/><rect class="c" x="146" y="82" rx="2" ry="2"/><rect class="c" x="146" y="98" rx="2" ry="2"/><rect class="c" x="162" y="2" rx="2" ry="2"/><rect class="c" x="162" y="18" rx="2" ry="2"/><rect class="c" x="162" y="34" rx="2" ry="2"/><rect class="c" x="162" y="50" rx="2" ry="2"/><rect class="c" x="162" y="66" rx="2" ry="2"/><rect class="c" x="162" y="82" rx="2" ry="2"/><rect class="c" x="162" y="98" rx="2" ry="2"/><rect class="c" x="178" y="2" rx="2" ry="2"/><rect class="c" x="178" y="18" rx="2" ry="2"/><rect class="c" x="178" y="34" rx="2" ry="2"/><rect class="c" x="178" y="50" rx="2" ry="2"/><rect class="c" x="178" y="66" rx="2" ry="2"/><rect class="c" x="178" y="82" rx="2" ry="2"/><rect class="c" x="178" y="98" rx="2" ry="2"/><rect class="c" x="194" y="2" rx="2" ry="2"/><rect class="c" x="194" y="18" rx="2" ry="2"/><rect class="c" x="194" y="34" rx="2" ry="2"/><rect class="c" x="194" y="50" rx="2" ry="2"/><rect class="c" x="194" y="66" rx="2" ry="2"/><rect class="c" x="194" y="82" rx="2" ry="2"/><rect class="c" x="194" y="98" rx="2" ry="2"/><rect class="c" x="210" y="2" rx="2" ry="2"/><rect class="c" x="210" y="18" rx="2" ry="2"/><rect class="c" x="210" y="34" rx="2" ry="2"/><rect class="c" x="210" y="50" rx="2" ry="2"/><rect class="c" x="210" y="66" rx="2" ry="2"/><rect class="c" x="210" y="82" rx="2" ry="2"/><rect class="c" x="210" y="98" rx="2" ry="2"/><rect class="c" x="226" y="2" rx="2" ry="2"/><rect class="c" x="226" y="18" rx="2" ry="2"/><rect class="c" x="226" y="34" rx="2" ry="2"/><rect class="c" x="226" y="50" rx="2" ry="2"/><rect class="c" x="226" y="66" rx="2" ry="2"/><rect class="c" x="226" y="82" rx="2" ry="2"/><rect class="c" x="226" y="98" rx="2" ry="2"/><rect class="c" x="242" y="2" rx="2" ry="2"/><rect class="c" x="242" y="18" rx="2" ry="2"/><rect class="c" x="242" y="34" rx="2" ry="2"/><rect class="c" x="242" y="50" rx="2" ry="2"/><rect class="c" x="242" y="66" rx="2" ry="2"/><rect class="c" x="242" y="82" rx="2" ry="2"/><rect class="c" x="242" y="98" rx="2" ry="2"/><rect class="c" x="258" y="2" rx="2" ry="2"/><rect class="c" x="258" y="18" rx="2" ry="2"/><rect class="c" x="258" y="34" rx="2" ry="2"/><rect class="c" x="258" y="50" rx="2" ry="2"/><rect class="c" x="258" y="66" rx="2" ry="2"/><rect class="c" x="258" y="82" rx="2" ry="2"/><rect class="c" x="258" y="98" rx="2" ry="2"/><rect class="c" x="274" y="2" rx="2" ry="2"/><rect class="c" x="274" y="18" rx="2" ry="2"/><rect class="c" x="274" y="34" rx="2" ry="2"/><rect class="c" x="274" y="50" rx="2" ry="2"/><rect class="c" x="274" y="66" rx="2" ry="2"/><rect class="c" x="274" y="82" rx="2" ry="2"/><rect class="c" x="274" y="98" rx="2" ry="2"/><rect class="c" x="290" y="2" rx="2" ry="2"/><rect class="c" x="290" y="18" rx="2" ry="2"/><rect class="c" x="290" y="34" rx="2" ry="2"/><rect class="c" x="290" y="50" rx="2" ry="2"/><rect class="c" x="290" y="66" rx="2" ry="2"/><rect class="c" x="290" y="82" rx="2" ry="2"/><rect class="c" x="290" y="98" rx="2" ry="2"/><rect class="c" x="306" y="2" rx="2" ry="2"/><rect class="c" x="306" y="18" rx="2" ry="2"/><rect class="c" x="306" y="34" rx="2" ry="2"/><rect class="c" x="306" y="50" rx="2" ry="2"/><rect class="c" x="306" y="66" rx="2" ry="2"/><rect class="c" x="306" y="82" rx="2" ry="2"/><rect class="c" x="306" y="98" rx="2" ry="2"/><rect class="c" x="322" y="2" rx="2" ry="2"/><rect class="c" x="322" y="18" rx="2" ry="2"/><rect class="c" x="322" y="34" rx="2" ry="2"/><rect class="c" x="322" y="50" rx="2" ry="2"/><rect class="c" x="322" y="66" rx="2" ry="2"/><rect class="c" x="322" y="82" rx="2" ry="2"/><rect class="c" x="322" y="98" rx="2" ry="2"/><rect class="c" x="338" y="2" rx="2" ry="2"/><rect class="c" x="338" y="18" rx="2" ry="2"/><rect class="c" x="338" y="34" rx="2" ry="2"/><rect class="c" x="338" y="50" rx="2" ry="2"/><rect class="c" x="338" y="66" rx="2" ry="2"/><rect class="c" x="338" y="82" rx="2" ry="2"/><rect class="c" x="338" y="98" rx="2" ry="2"/><rect class="c" x="354" y="2" rx="2" ry="2"/><rect class="c" x="354" y="18" rx="2" ry="2"/><rect class="c" x="354" y="34" rx="2" ry="2"/><rect class="c" x="354" y="50" rx="2" ry="2"/><rect class="c" x="354" y="66" rx="2" ry="2"/><rect class="c" x="354" y="82" rx="2" ry="2"/><rect class="c" x="354" y="98" rx="2" ry="2"/><rect class="c" x="370" y="2" rx="2" ry="2"/><rect class="c" x="370" y="18" rx="2" ry="2"/><rect class="c" x="370" y="34" rx="2" ry="2"/><rect class="c" x="370" y="50" rx="2" ry="2"/><rect class="c" x="370" y="66" rx="2" ry="2"/><rect class="c" x="370" y="82" rx="2" ry="2"/><rect class="c" x="370" y="98" rx="2" ry="2"/><rect class="c" x="386" y="2" rx="2" ry="2"/><rect class="c" x="386" y="18" rx="2" ry="2"/><rect class="c" x="386" y="34" rx="2" ry="2"/><rect class="c" x="386" y="50" rx="2" ry="2"/><rect class="c" x="386" y="66" rx="2" ry="2"/><rect class="c" x="386" y="82" rx="2" ry="2"/><rect class="c" x="386" y="98" rx="2" ry="2"/><rect class="c" x="402" y="2" rx="2" ry="2"/><rect class="c" x="402" y="18" rx="2" ry="2"/><rect class="c" x="402" y="34" rx="2" ry="2"/><rect class="c" x="402" y="50" rx="2" ry="2"/><rect class="c" x="402" y="66" rx="2" ry="2"/><rect class="c" x="402" y="82" rx="2" ry="2"/><rect class="c" x="402" y="98" rx="2" ry="2"/><rect class="c" x="418" y="2" rx="2" ry="2"/><rect class="c" x="418" y="18" rx="2" ry="2"/><rect class="c" x="418" y="34" rx="2" ry="2"/><rect class="c" x="418" y="50" rx="2" ry="2"/><rect class="c" x="418" y="66" rx="2" ry="2"/><rect class="c" x="418" y="82" rx="2" ry="2"/><rect class="c" x="418" y="98" rx="2" ry="2"/><rect class="c" x="434" y="2" rx="2" ry="2"/><rect class="c" x="434" y="18" rx="2" ry="2"/><rect class="c" x="434" y="34" rx="2" ry="2"/><rect class="c" x="434" y="50" rx="2" ry="2"/><rect class="c" x="434" y="66" rx="2" ry="2"/><rect class="c" x="434" y="82" rx="2" ry="2"/><rect class="c" x="434" y="98" rx="2" ry="2"/><rect class="c" x="450" y="2" rx="2" ry="2"/><rect class="c" x="450" y="18" rx="2" ry="2"/><rect class="c" x="450" y="34" rx="2" ry="2"/><rect class="c" x="450" y="50" rx="2" ry="2"/><rect class="c" x="450" y="66" rx="2" ry="2"/><rect class="c" x="450" y="82" rx="2" ry="2"/><rect class="c" x="450" y="98" rx="2" ry="2"/><rect class="c" x="466" y="2" rx="2" ry="2"/><rect class="c" x="466" y="18" rx="2" ry="2"/><rect class="c" x="466" y="34" rx="2" ry="2"/><rect class="c" x="466" y="50" rx="2" ry="2"/><rect class="c" x="466" y="66" rx="2" ry="2"/><rect class="c" x="466" y="82" rx="2" ry="2"/><rect class="c" x="466" y="98" rx="2" ry="2"/><rect class="c" x="482" y="2" rx="2" ry="2"/><rect class="c" x="482" y="18" rx="2" ry="2"/><rect class="c" x="482" y="34" rx="2" ry="2"/><rect class="c" x="482" y="50" rx="2" ry="2"/><rect class="c" x="482" y="66" rx="2" ry="2"/><rect class="c" x="482" y="82" rx="2" ry="2"/><rect class="c" x="482" y="98" rx="2" ry="2"/><rect class="c" x="498" y="2" rx="2" ry="2"/><rect class="c" x="498" y="18" rx="2" ry="2"/><rect class="c" x="498" y="34" rx="2" ry="2"/><rect class="c" x="498" y="50" rx="2" ry="2"/><rect class="c" x="498" y="66" rx="2" ry="2"/><rect class="c" x="498" y="82" rx="2" ry="2"/><rect class="c" x="498" y="98" rx="2" ry="2"/><rect class="c" x="514" y="2" rx="2" ry="2"/><rect class="c" x="514" y="18" rx="2" ry="2"/><rect class="c" x="514" y="34" rx="2" ry="2"/><rect class="c" x="514" y="50" rx="2" ry="2"/><rect class="c" x="514" y="66" rx="2" ry="2"/><rect class="c" x="514" y="82" rx="2" ry="2"/><rect class="c" x="514" y="98" rx="2" ry="2"/><rect class="c" x="530" y="2" rx="2" ry="2"/><rect class="c" x="530" y="18" rx="2" ry="2"/><rect class="c" x="530" y="34" rx="2" ry="2"/><rect class="c" x="530" y="50" rx="2" ry="2"/><rect class="c" x="530" y="66" rx="2" ry="2"/><rect class="c" x="530" y="82" rx="2" ry="2"/><rect class="c" x="530" y="98" rx="2" ry="2"/><rect class="c" x="546" y="2" rx="2" ry="2"/><rect class="c" x="546" y="18" rx="2" ry="2"/><rect class="c" x="546" y="34" rx="2" ry="2"/><rect class="c" x="546" y="50" rx="2" ry="2"/><rect class="c" x="546" y="66" rx="2" ry="2"/><rect class="c" x="546" y="82" rx="2" ry="2"/><rect class="c" x="546" y="98" rx="2" ry="2"/><rect class="c" x="562" y="2" rx="2" ry="2"/><rect class="c" x="562" y="18" rx="2" ry="2"/><rect class="c" x="562" y="34" rx="2" ry="2"/><rect class="c" x="562" y="50" rx="2" ry="2"/><rect class="c" x="562" y="66" rx="2" ry="2"/><rect class="c" x="562" y="82" rx="2" ry="2"/><rect class="c" x="562" y="98" rx="2" ry="2"/><rect class="c" x="578" y="2" rx="2" ry="2"/><rect class="c" x="578" y="18" rx="2" ry="2"/><rect class="c" x="578" y="34" rx="2" ry="2"/><rect class="c" x="578" y="50" rx="2" ry="2"/><rect class="c" x="578" y="66" rx="2" ry="2"/><rect class="c" x="578" y="82" rx="2" ry="2"/><rect class="c" x="578" y="98" rx="2" ry="2"/><rect class="c" x="594" y="2" rx="2" ry="2"/><rect class="c" x="594" y="18" rx="2" ry="2"/><rect class="c" x="594" y="34" rx="2" ry="2"/><rect class="c" x="594" y="50" rx="2" ry="2"/><rect class="c" x="594" y="66" rx="2" ry="2"/><rect class="c" x="594" y="82" rx="2" ry="2"/><rect class="c" x="594" y="98" rx="2" ry="2"/><rect class="c" x="610" y="2" rx="2" ry="2"/><rect class="c" x="610" y="18" rx="2" ry="2"/><rect class="c" x="610" y="34" rx="2" ry="2"/><rect class="c" x="610" y="50" rx="2" ry="2"/><rect class="c" x="610" y="66" rx="2" ry="2"/><rect class="c" x="610" y="82" rx="2" ry="2"/><rect class="c" x="610" y="98" rx="2" ry="2"/><rect class="c" x="626" y="2" rx="2" ry="2"/><rect class="c" x="626" y="18" rx="2" ry="2"/><rect class="c" x="626" y="34" rx="2" ry="2"/><rect class="c c0" x="626" y="50" rx="2" ry="2"/><rect class="c c1" x="626" y="66" rx="2" ry="2"/><rect class="c c2" x="626" y="82" rx="2" ry="2"/><rect class="c c3" x="626" y="98" rx="2" ry="2"/><rect class="c c4" x="642" y="2" rx="2" ry="2"/><rect class="c" x="642" y="18" rx="2" ry="2"/><rect class="c" x="642" y="34" rx="2" ry="2"/><rect class="c" x="642" y="50" rx="2" ry="2"/><rect class="c" x="642" y="66" rx="2" ry="2"/><rect class="c" x="642" y="82" rx="2" ry="2"/><rect class="c c5" x="642" y="98" rx="2" ry="2"/><rect class="c c6" x="658" y="2" rx="2" ry="2"/><rect class="c" x="658" y="18" rx="2" ry="2"/><rect class="c" x="658" y="34" rx="2" ry="2"/><rect class="c" x="658" y="50" rx="2" ry="2"/><rect class="c" x="658" y="66" rx="2" ry="2"/><rect class="c" x="658" y="82" rx="2" ry="2"/><rect class="c" x="658" y="98" rx="2" ry="2"/><rect class="c c7" x="674" y="2" rx="2" ry="2"/><rect class="c" x="674" y="18" rx="2" ry="2"/><rect class="c" x="674" y="34" rx="2" ry="2"/><rect class="c" x="674" y="50" rx="2" ry="2"/><rect class="c" x="674" y="66" rx="2" ry="2"/><rect class="c c8" x="674" y="82" rx="2" ry="2"/><rect class="c c9" x="674" y="98" rx="2" ry="2"/><rect class="c" x="690" y="2" rx="2" ry="2"/><rect class="c" x="690" y="18" rx="2" ry="2"/><rect class="c" x="690" y="34" rx="2" ry="2"/><rect class="c" x="690" y="50" rx="2" ry="2"/><rect class="c" x="690" y="66" rx="2" ry="2"/><rect class="c" x="690" y="82" rx="2" ry="2"/><rect class="c ca" x="690" y="98" rx="2" ry="2"/><rect class="c cb" x="706" y="2" rx="2" ry="2"/><rect class="c" x="706" y="18" rx="2" ry="2"/><rect class="c" x="706" y="34" rx="2" ry="2"/><rect class="c cc" x="706" y="50" rx="2" ry="2"/><rect class="c" x="706" y="66" rx="2" ry="2"/><rect class="c" x="706" y="82" rx="2" ry="2"/><rect class="c" x="706" y="98" rx="2" ry="2"/><rect class="c cd" x="722" y="2" rx="2" ry="2"/><rect class="c ce" x="722" y="18" rx="2" ry="2"/><rect class="c" x="722" y="34" rx="2" ry="2"/><rect class="c" x="722" y="50" rx="2" ry="2"/><rect class="c" x="722" y="66" rx="2" ry="2"/><rect class="c cf" x="722" y="82" rx="2" ry="2"/><rect class="c" x="722" y="98" rx="2" ry="2"/><rect class="c" x="738" y="2" rx="2" ry="2"/><rect class="c" x="738" y="18" rx="2" ry="2"/><rect class="c" x="738" y="34" rx="2" ry="2"/><rect class="c" x="738" y="50" rx="2" ry="2"/><rect class="c" x="738" y="66" rx="2" ry="2"/><rect class="c" x="738" y="82" rx="2" ry="2"/><rect class="c cg" x="738" y="98" rx="2" ry="2"/><rect class="c ch" x="754" y="2" rx="2" ry="2"/><rect class="c" x="754" y="18" rx="2" ry="2"/><rect class="c" x="754" y="34" rx="2" ry="2"/><rect class="c" x="754" y="50" rx="2" ry="2"/><rect class="c" x="754" y="66" rx="2" ry="2"/><rect class="c" x="754" y="82" rx="2" ry="2"/><rect class="c" x="754" y="98" rx="2" ry="2"/><rect class="c ci" x="770" y="2" rx="2" ry="2"/><rect class="c cj" x="770" y="18" rx="2" ry="2"/><rect class="c" x="770" y="34" rx="2" ry="2"/><rect class="c" x="770" y="50" rx="2" ry="2"/><rect class="c ck" x="770" y="66" rx="2" ry="2"/><rect class="c cl" x="770" y="82" rx="2" ry="2"/><rect class="c cm" x="770" y="98" rx="2" ry="2"/><rect class="c cn" x="786" y="2" rx="2" ry="2"/><rect class="c co" x="786" y="18" rx="2" ry="2"/><rect class="c cp" x="786" y="34" rx="2" ry="2"/><rect class="c cq" x="786" y="50" rx="2" ry="2"/><rect class="c cr" x="786" y="66" rx="2" ry="2"/><rect class="c" x="786" y="82" rx="2" ry="2"/><rect class="c cs" x="786" y="98" rx="2" ry="2"/><rect class="c ct" x="802" y="2" rx="2" ry="2"/><rect class="c cu" x="802" y="18" rx="2" ry="2"/><rect class="c cv" x="802" y="34" rx="2" ry="2"/><rect class="c cw" x="802" y="50" rx="2" ry="2"/><rect class="c cx" x="802" y="66" rx="2" ry="2"/><rect class="c cy" x="802" y="82" rx="2" ry="2"/><rect class="c cz" x="802" y="98" rx="2" ry="2"/><rect class="c" x="818" y="2" rx="2" ry="2"/><rect class="c c10" x="818" y="18" rx="2" ry="2"/><rect class="c c11" x="818" y="34" rx="2" ry="2"/><rect class="c c12" x="818" y="50" rx="2" ry="2"/><rect class="c" x="818" y="66" rx="2" ry="2"/><rect class="c c13" x="818" y="82" rx="2" ry="2"/><rect class="c" x="818" y="98" rx="2" ry="2"/><rect class="c" x="834" y="2" rx="2" ry="2"/><rect class="u u0" height="12" width="361.0" x="0.0" y="144"/><rect class="u u1" height="12" width="255.0" x="360.4" y="144"/><rect class="u u2" height="12" width="64.2" x="614.8" y="144"/><rect class="u u3" height="12" width="170.2" x="678.4" y="144"/><rect class="s s0" x="0.8" y="0.8" width="14.4" height="14.4" rx="4.5" ry="4.5"/><rect class="s s1" x="1.8" y="1.8" width="12.3" height="12.3" rx="4.1" ry="4.1"/><rect class="s s2" x="2.6" y="2.6" width="10.8" height="10.8" rx="3.6" ry="3.6"/><rect class="s s3" x="3.0" y="3.0" width="9.9" height="9.9" rx="3.3" ry="3.3"/></svg>