<svg viewBox="-16 -32 880 192" width="880" height="192" xmlns="http://www.w3.org/2000/svg"><desc>Generated with https://github.com/Platane/snk</desc><style>:root{--cb:#1b1f230a;--cs:orange;--ce:#bfd6f6;--c0:#bfd6f6;--c1:#8dbdff;--c2:#64a1f4;--c3:#4b91f1;--c4:#3c7dd9}.c{shape-rendering:geometricPrecision;fill:var(--ce);stroke-width:1px;stroke:var(--cb);animation:none 26900ms linear infinite;width:12px;height:12px}@keyframes c0{13.37%{fill:var(--c1)}13.39%,100%{fill:var(--ce)}}.c.c0{fill:var(--c1);animation-name:c0}@keyframes c1{73.22%{fill:var(--c3)}73.24%,100%{fill:var(--ce)}}.c.c1{fill:var(--c3);animation-name:c1}@keyframes c2{48.32%{fill:var(--c2)}48.34%,100%{fill:var(--ce)}}.c.c2{fill:var(--c2);animation-name:c2}@keyframes c3{73.97%{fill:var(--c4)}73.99%,100%{fill:var(--ce)}}.c.c3{fill:var(--c4);animation-name:c3}@keyframes c4{79.54%{fill:var(--c4)}79.56%,100%{fill:var(--ce)}}.c.c4{fill:var(--c4);animation-name:c4}@keyframes c5{14.86%{fill:var(--c1)}14.88%,100%{fill:var(--ce)}}.c.c5{fill:var(--c1);animation-name:c5}@keyframes c6{17.46%{fill:var(--c1)}17.48%,100%{fill:var(--ce)}}.c.c6{fill:var(--c1);animation-name:c6}@keyframes c7{17.83%{fill:var(--c1)}17.85%,100%{fill:var(--ce)}}.c.c7{fill:var(--c1);animation-name:c7}@keyframes c8{71.74%{fill:var(--c3)}71.76%,100%{fill:var(--ce)}}.c.c8{fill:var(--c3);animation-name:c8}@keyframes c9{75.08%{fill:var(--c4)}75.1%,100%{fill:var(--ce)}}.c.c9{fill:var(--c4);animation-name:c9}@keyframes ca{75.45%{fill:var(--c4)}75.47%,100%{fill:var(--ce)}}.c.ca{fill:var(--c4);animation-name:ca}@keyframes cb{78.06%{fill:var(--c4)}78.08%,100%{fill:var(--ce)}}.c.cb{fill:var(--c4);animation-name:cb}@keyframes cc{45.71%{fill:var(--c2)}45.73%,100%{fill:var(--ce)}}.c.cc{fill:var(--c2);animation-name:cc}@keyframes cd{68.02%{fill:var(--c3)}68.04%,100%{fill:var(--ce)}}.c.cd{fill:var(--c3);animation-name:cd}@keyframes ce{67.65%{fill:var(--c3)}67.67%,100%{fill:var(--ce)}}.c.ce{fill:var(--c3);animation-name:ce}@keyframes cf{20.81%{fill:var(--c1)}20.83%,100%{fill:var(--ce)}}.c.cf{fill:var(--c1);animation-name:cf}@keyframes cg{21.55%{fill:var(--c1)}21.57%,100%{fill:var(--ce)}}.c.cg{fill:var(--c1);animation-name:cg}@keyframes ch{39.02%{fill:var(--c2)}39.04%,100%{fill:var(--ce)}}.c.ch{fill:var(--c2);animation-name:ch}@keyframes ci{38.65%{fill:var(--c1)}38.67%,100%{fill:var(--ce)}}.c.ci{fill:var(--c1);animation-name:ci}@keyframes cj{43.48%{fill:var(--c2)}43.5%,100%{fill:var(--ce)}}.c.cj{fill:var(--c2);animation-name:cj}@keyframes ck{65.42%{fill:var(--c3)}65.44%,100%{fill:var(--ce)}}.c.ck{fill:var(--c3);animation-name:ck}@keyframes cl{22.67%{fill:var(--c1)}22.69%,100%{fill:var(--ce)}}.c.cl{fill:var(--c1);animation-name:cl}@keyframes cm{22.29%{fill:var(--c1)}22.31%,100%{fill:var(--ce)}}.c.cm{fill:var(--c1);animation-name:cm}@keyframes cn{83.63%{fill:var(--c4)}83.65%,100%{fill:var(--ce)}}.c.cn{fill:var(--c4);animation-name:cn}@keyframes co{83.26%{fill:var(--c4)}83.28%,100%{fill:var(--ce)}}.c.co{fill:var(--c4);animation-name:co}@keyframes cp{42.74%{fill:var(--c2)}42.76%,100%{fill:var(--ce)}}.c.cp{fill:var(--c2);animation-name:cp}@keyframes cq{40.88%{fill:var(--c1)}40.9%,100%{fill:var(--ce)}}.c.cq{fill:var(--c1);animation-name:cq}@keyframes cr{42%{fill:var(--c2)}42.02%,100%{fill:var(--ce)}}.c.cr{fill:var(--c2);animation-name:cr}@keyframes cs{64.3%{fill:var(--c3)}64.32%,100%{fill:var(--ce)}}.c.cs{fill:var(--c3);animation-name:cs}@keyframes ct{37.16%{fill:var(--c1)}37.18%,100%{fill:var(--ce)}}.c.ct{fill:var(--c1);animation-name:ct}@keyframes cu{36.79%{fill:var(--c1)}36.81%,100%{fill:var(--ce)}}.c.cu{fill:var(--c1);animation-name:cu}@keyframes cv{62.44%{fill:var(--c3)}62.46%,100%{fill:var(--ce)}}.c.cv{fill:var(--c3);animation-name:cv}@keyframes cw{41.25%{fill:var(--c2)}41.27%,100%{fill:var(--ce)}}.c.cw{fill:var(--c2);animation-name:cw}@keyframes cx{41.63%{fill:var(--c1)}41.65%,100%{fill:var(--ce)}}.c.cx{fill:var(--c1);animation-name:cx}@keyframes cy{63.56%{fill:var(--c3)}63.58%,100%{fill:var(--ce)}}.c.cy{fill:var(--c3);animation-name:cy}@keyframes cz{25.27%{fill:var(--c1)}25.29%,100%{fill:var(--ce)}}.c.cz{fill:var(--c1);animation-name:cz}@keyframes c10{36.42%{fill:var(--c1)}36.44%,100%{fill:var(--ce)}}.c.c10{fill:var(--c1);animation-name:c10}@keyframes c11{54.64%{fill:var(--c2)}54.66%,100%{fill:var(--ce)}}.c.c11{fill:var(--c2);animation-name:c11}@keyframes c12{32.7%{fill:var(--c1)}32.72%,100%{fill:var(--ce)}}.c.c12{fill:var(--c1);animation-name:c12}@keyframes c13{31.96%{fill:var(--c1)}31.98%,100%{fill:var(--ce)}}.c.c13{fill:var(--c1);animation-name:c13}@keyframes c14{34.19%{fill:var(--c1)}34.21%,100%{fill:var(--ce)}}.c.c14{fill:var(--c1);animation-name:c14}@keyframes c15{26.01%{fill:var(--c1)}26.03%,100%{fill:var(--ce)}}.c.c15{fill:var(--c1);animation-name:c15}@keyframes c16{34.56%{fill:var(--c1)}34.58%,100%{fill:var(--ce)}}.c.c16{fill:var(--c1);animation-name:c16}@keyframes c17{34.93%{fill:var(--c1)}34.95%,100%{fill:var(--ce)}}.c.c17{fill:var(--c1);animation-name:c17}@keyframes c18{35.31%{fill:var(--c1)}35.33%,100%{fill:var(--ce)}}.c.c18{fill:var(--c1);animation-name:c18}@keyframes c19{26.76%{fill:var(--c1)}26.78%,100%{fill:var(--ce)}}.c.c19{fill:var(--c1);animation-name:c19}@keyframes c1a{27.5%{fill:var(--c1)}27.52%,100%{fill:var(--ce)}}.c.c1a{fill:var(--c1);animation-name:c1a}@keyframes c1b{28.99%{fill:var(--c1)}29.01%,100%{fill:var(--ce)}}.c.c1b{fill:var(--c1);animation-name:c1b}@keyframes c1c{58.35%{fill:var(--c2)}58.37%,100%{fill:var(--ce)}}.c.c1c{fill:var(--c2);animation-name:c1c}.u{transform-origin:0 0;transform:scale(0,1);animation:none linear 26900ms infinite}@keyframes u0{13.37%{transform:scale(0.000,1)}13.39%,14.86%{transform:scale(0.043,1)}14.88%,17.46%{transform:scale(0.087,1)}17.48%,17.83%{transform:scale(0.130,1)}17.85%,20.81%{transform:scale(0.174,1)}20.83%,21.55%{transform:scale(0.217,1)}21.57%,22.29%{transform:scale(0.261,1)}22.31%,22.67%{transform:scale(0.304,1)}22.69%,25.27%{transform:scale(0.348,1)}25.29%,26.01%{transform:scale(0.391,1)}26.03%,26.76%{transform:scale(0.435,1)}26.78%,27.5%{transform:scale(0.478,1)}27.52%,28.99%{transform:scale(0.522,1)}29.01%,31.96%{transform:scale(0.565,1)}31.98%,32.7%{transform:scale(0.609,1)}32.72%,34.19%{transform:scale(0.652,1)}34.21%,34.56%{transform:scale(0.696,1)}34.58%,34.93%{transform:scale(0.739,1)}34.95%,35.31%{transform:scale(0.783,1)}35.33%,36.42%{transform:scale(0.826,1)}36.44%,36.79%{transform:scale(0.870,1)}36.81%,37.16%{transform:scale(0.913,1)}37.18%,38.65%{transform:scale(0.957,1)}38.67%,100%{transform:scale(1.000,1)}}.u.u0{fill:var(--c1);animation-name:u0;transform-origin:0.0px 0}@keyframes u1{39.02%{transform:scale(0.000,1)}39.04%,100%{transform:scale(1.000,1)}}.u.u1{fill:var(--c2);animation-name:u1;transform-origin:398.0px 0}@keyframes u2{40.88%{transform:scale(0.000,1)}40.9%,100%{transform:scale(1.000,1)}}.u.u2{fill:var(--c1);animation-name:u2;transform-origin:415.3px 0}@keyframes u3{41.25%{transform:scale(0.000,1)}41.27%,100%{transform:scale(1.000,1)}}.u.u3{fill:var(--c2);animation-name:u3;transform-origin:432.7px 0}@keyframes u4{41.63%{transform:scale(0.000,1)}41.65%,100%{transform:scale(1.000,1)}}.u.u4{fill:var(--c1);animation-name:u4;transform-origin:450.0px 0}@keyframes u5{42%{transform:scale(0.000,1)}42.02%,42.74%{transform:scale(0.143,1)}42.76%,43.48%{transform:scale(0.286,1)}43.5%,45.71%{transform:scale(0.429,1)}45.73%,48.32%{transform:scale(0.571,1)}48.34%,54.64%{transform:scale(0.714,1)}54.66%,58.35%{transform:scale(0.857,1)}58.37%,100%{transform:scale(1.000,1)}}.u.u5{fill:var(--c2);animation-name:u5;transform-origin:467.3px 0}@keyframes u6{62.44%{transform:scale(0.000,1)}62.46%,63.56%{transform:scale(0.125,1)}63.58%,64.3%{transform:scale(0.250,1)}64.32%,65.42%{transform:scale(0.375,1)}65.44%,67.65%{transform:scale(0.500,1)}67.67%,68.02%{transform:scale(0.625,1)}68.04%,71.74%{transform:scale(0.750,1)}71.76%,73.22%{transform:scale(0.875,1)}73.24%,100%{transform:scale(1.000,1)}}.u.u6{fill:var(--c3);animation-name:u6;transform-origin:588.4px 0}@keyframes u7{73.97%{transform:scale(0.000,1)}73.99%,75.08%{transform:scale(0.143,1)}75.1%,75.45%{transform:scale(0.286,1)}75.47%,78.06%{transform:scale(0.429,1)}78.08%,79.54%{transform:scale(0.571,1)}79.56%,83.26%{transform:scale(0.714,1)}83.28%,83.63%{transform:scale(0.857,1)}83.65%,100%{transform:scale(1.000,1)}}.u.u7{fill:var(--c4);animation-name:u7;transform-origin:726.9px 0}.s{shape-rendering:geometricPrecision;fill:var(--cs);animation:none linear 26900ms infinite}@keyframes s0{0%,99.63%{transform:translate(0px,-16px)}0.37%{transform:translate(0px,0px)}12.27%{transform:translate(512px,0px)}13.38%{transform:translate(512px,48px)}13.75%,47.21%{transform:translate(528px,48px)}14.87%{transform:translate(528px,96px)}15.24%{transform:translate(544px,96px)}17.47%{transform:translate(544px,0px)}18.22%{transform:translate(576px,0px)}18.59%{transform:translate(576px,16px)}18.96%{transform:translate(592px,16px)}19.33%,45.35%{transform:translate(592px,32px)}19.7%{transform:translate(608px,32px)}20.82%{transform:translate(608px,80px)}21.19%{transform:translate(624px,80px)}21.56%{transform:translate(624px,96px)}22.3%,23.79%,64.68%{transform:translate(656px,96px)}22.68%{transform:translate(656px,80px)}23.05%{transform:translate(640px,80px)}23.42%{transform:translate(640px,96px)}24.16%{transform:translate(656px,112px)}24.91%{transform:translate(688px,112px)}25.28%{transform:translate(688px,96px)}27.14%{transform:translate(768px,96px)}27.51%{transform:translate(768px,80px)}28.62%{transform:translate(816px,80px)}29%{transform:translate(816px,96px)}29.37%{transform:translate(800px,96px)}29.74%{transform:translate(800px,80px)}31.97%{transform:translate(704px,80px)}32.71%,54.28%{transform:translate(704px,48px)}33.09%{transform:translate(720px,48px)}34.2%{transform:translate(720px,0px)}34.94%{transform:translate(752px,0px)}35.32%{transform:translate(752px,16px)}36.8%{transform:translate(688px,16px)}37.55%{transform:translate(688px,-16px)}38.29%{transform:translate(656px,-16px)}38.66%{transform:translate(656px,0px)}39.03%{transform:translate(640px,0px)}40.15%{transform:translate(640px,48px)}41.26%{transform:translate(688px,48px)}41.64%{transform:translate(688px,64px)}42.01%{transform:translate(672px,64px)}42.75%{transform:translate(672px,32px)}43.12%{transform:translate(656px,32px)}43.49%,66.54%{transform:translate(656px,16px)}44.24%,68.77%{transform:translate(624px,16px)}44.61%{transform:translate(624px,32px)}45.72%{transform:translate(592px,48px)}47.96%{transform:translate(528px,80px)}48.7%{transform:translate(496px,80px)}49.44%{transform:translate(496px,48px)}54.65%{transform:translate(704px,32px)}57.62%{transform:translate(832px,32px)}58.36%{transform:translate(832px,0px)}61.71%{transform:translate(688px,0px)}63.57%{transform:translate(688px,80px)}63.94%{transform:translate(672px,80px)}64.31%{transform:translate(672px,96px)}67.66%{transform:translate(608px,16px)}68.03%{transform:translate(608px,0px)}68.4%{transform:translate(624px,0px)}70.26%{transform:translate(560px,16px)}71.75%{transform:translate(560px,80px)}72.12%{transform:translate(544px,80px)}72.49%{transform:translate(544px,64px)}73.23%{transform:translate(512px,64px)}73.98%{transform:translate(512px,96px)}75.84%{transform:translate(592px,96px)}78.07%{transform:translate(592px,0px)}79.55%{transform:translate(528px,0px)}79.93%{transform:translate(528px,16px)}83.27%{transform:translate(672px,16px)}83.64%{transform:translate(672px,0px)}98.14%{transform:translate(48px,0px)}98.51%{transform:translate(48px,-16px)}}.s.s0{transform:translate(0px,-16px);animation-name:s0}@keyframes s1{0%,99.63%{transform:translate(16px,-16px)}0.37%{transform:translate(0px,-16px)}0.74%{transform:translate(0px,0px)}12.64%{transform:translate(512px,0px)}13.75%{transform:translate(512px,48px)}14.13%,47.58%{transform:translate(528px,48px)}15.24%{transform:translate(528px,96px)}15.61%{transform:translate(544px,96px)}17.84%{transform:translate(544px,0px)}18.59%{transform:translate(576px,0px)}18.96%{transform:translate(576px,16px)}19.33%{transform:translate(592px,16px)}19.7%,45.72%{transform:translate(592px,32px)}20.07%{transform:translate(608px,32px)}21.19%{transform:translate(608px,80px)}21.56%{transform:translate(624px,80px)}21.93%{transform:translate(624px,96px)}22.68%,24.16%,65.06%{transform:translate(656px,96px)}23.05%{transform:translate(656px,80px)}23.42%{transform:translate(640px,80px)}23.79%{transform:translate(640px,96px)}24.54%{transform:translate(656px,112px)}25.28%{transform:translate(688px,112px)}25.65%{transform:translate(688px,96px)}27.51%{transform:translate(768px,96px)}27.88%{transform:translate(768px,80px)}29%{transform:translate(816px,80px)}29.37%{transform:translate(816px,96px)}29.74%{transform:translate(800px,96px)}30.11%{transform:translate(800px,80px)}32.34%{transform:translate(704px,80px)}33.09%,54.65%{transform:translate(704px,48px)}33.46%{transform:translate(720px,48px)}34.57%{transform:translate(720px,0px)}35.32%{transform:translate(752px,0px)}35.69%{transform:translate(752px,16px)}37.17%{transform:translate(688px,16px)}37.92%{transform:translate(688px,-16px)}38.66%{transform:translate(656px,-16px)}39.03%{transform:translate(656px,0px)}39.41%{transform:translate(640px,0px)}40.52%{transform:translate(640px,48px)}41.64%{transform:translate(688px,48px)}42.01%{transform:translate(688px,64px)}42.38%{transform:translate(672px,64px)}43.12%{transform:translate(672px,32px)}43.49%{transform:translate(656px,32px)}43.87%,66.91%{transform:translate(656px,16px)}44.61%,69.14%{transform:translate(624px,16px)}44.98%{transform:translate(624px,32px)}46.1%{transform:translate(592px,48px)}48.33%{transform:translate(528px,80px)}49.07%{transform:translate(496px,80px)}49.81%{transform:translate(496px,48px)}55.02%{transform:translate(704px,32px)}57.99%{transform:translate(832px,32px)}58.74%{transform:translate(832px,0px)}62.08%{transform:translate(688px,0px)}63.94%{transform:translate(688px,80px)}64.31%{transform:translate(672px,80px)}64.68%{transform:translate(672px,96px)}68.03%{transform:translate(608px,16px)}68.4%{transform:translate(608px,0px)}68.77%{transform:translate(624px,0px)}70.63%{transform:translate(560px,16px)}72.12%{transform:translate(560px,80px)}72.49%{transform:translate(544px,80px)}72.86%{transform:translate(544px,64px)}73.61%{transform:translate(512px,64px)}74.35%{transform:translate(512px,96px)}76.21%{transform:translate(592px,96px)}78.44%{transform:translate(592px,0px)}79.93%{transform:translate(528px,0px)}80.3%{transform:translate(528px,16px)}83.64%{transform:translate(672px,16px)}84.01%{transform:translate(672px,0px)}98.51%{transform:translate(48px,0px)}98.88%{transform:translate(48px,-16px)}}.s.s1{transform:translate(16px,-16px);animation-name:s1}@keyframes s2{0%,99.63%{transform:translate(32px,-16px)}0.74%{transform:translate(0px,-16px)}1.12%{transform:translate(0px,0px)}13.01%{transform:translate(512px,0px)}14.13%{transform:translate(512px,48px)}14.5%,47.96%{transform:translate(528px,48px)}15.61%{transform:translate(528px,96px)}15.99%{transform:translate(544px,96px)}18.22%{transform:translate(544px,0px)}18.96%{transform:translate(576px,0px)}19.33%{transform:translate(576px,16px)}19.7%{transform:translate(592px,16px)}20.07%,46.1%{transform:translate(592px,32px)}20.45%{transform:translate(608px,32px)}21.56%{transform:translate(608px,80px)}21.93%{transform:translate(624px,80px)}22.3%{transform:translate(624px,96px)}23.05%,24.54%,65.43%{transform:translate(656px,96px)}23.42%{transform:translate(656px,80px)}23.79%{transform:translate(640px,80px)}24.16%{transform:translate(640px,96px)}24.91%{transform:translate(656px,112px)}25.65%{transform:translate(688px,112px)}26.02%{transform:translate(688px,96px)}27.88%{transform:translate(768px,96px)}28.25%{transform:translate(768px,80px)}29.37%{transform:translate(816px,80px)}29.74%{transform:translate(816px,96px)}30.11%{transform:translate(800px,96px)}30.48%{transform:translate(800px,80px)}32.71%{transform:translate(704px,80px)}33.46%,55.02%{transform:translate(704px,48px)}33.83%{transform:translate(720px,48px)}34.94%{transform:translate(720px,0px)}35.69%{transform:translate(752px,0px)}36.06%{transform:translate(752px,16px)}37.55%{transform:translate(688px,16px)}38.29%{transform:translate(688px,-16px)}39.03%{transform:translate(656px,-16px)}39.41%{transform:translate(656px,0px)}39.78%{transform:translate(640px,0px)}40.89%{transform:translate(640px,48px)}42.01%{transform:translate(688px,48px)}42.38%{transform:translate(688px,64px)}42.75%{transform:translate(672px,64px)}43.49%{transform:translate(672px,32px)}43.87%{transform:translate(656px,32px)}44.24%,67.29%{transform:translate(656px,16px)}44.98%,69.52%{transform:translate(624px,16px)}45.35%{transform:translate(624px,32px)}46.47%{transform:translate(592px,48px)}48.7%{transform:translate(528px,80px)}49.44%{transform:translate(496px,80px)}50.19%{transform:translate(496px,48px)}55.39%{transform:translate(704px,32px)}58.36%{transform:translate(832px,32px)}59.11%{transform:translate(832px,0px)}62.45%{transform:translate(688px,0px)}64.31%{transform:translate(688px,80px)}64.68%{transform:translate(672px,80px)}65.06%{transform:translate(672px,96px)}68.4%{transform:translate(608px,16px)}68.77%{transform:translate(608px,0px)}69.14%{transform:translate(624px,0px)}71%{transform:translate(560px,16px)}72.49%{transform:translate(560px,80px)}72.86%{transform:translate(544px,80px)}73.23%{transform:translate(544px,64px)}73.98%{transform:translate(512px,64px)}74.72%{transform:translate(512px,96px)}76.58%{transform:translate(592px,96px)}78.81%{transform:translate(592px,0px)}80.3%{transform:translate(528px,0px)}80.67%{transform:translate(528px,16px)}84.01%{transform:translate(672px,16px)}84.39%{transform:translate(672px,0px)}98.88%{transform:translate(48px,0px)}99.26%{transform:translate(48px,-16px)}}.s.s2{transform:translate(32px,-16px);animation-name:s2}@keyframes s3{0%,99.63%{transform:translate(48px,-16px)}1.12%{transform:translate(0px,-16px)}1.49%{transform:translate(0px,0px)}13.38%{transform:translate(512px,0px)}14.5%{transform:translate(512px,48px)}14.87%,48.33%{transform:translate(528px,48px)}15.99%{transform:translate(528px,96px)}16.36%{transform:translate(544px,96px)}18.59%{transform:translate(544px,0px)}19.33%{transform:translate(576px,0px)}19.7%{transform:translate(576px,16px)}20.07%{transform:translate(592px,16px)}20.45%,46.47%{transform:translate(592px,32px)}20.82%{transform:translate(608px,32px)}21.93%{transform:translate(608px,80px)}22.3%{transform:translate(624px,80px)}22.68%{transform:translate(624px,96px)}23.42%,24.91%,65.8%{transform:translate(656px,96px)}23.79%{transform:translate(656px,80px)}24.16%{transform:translate(640px,80px)}24.54%{transform:translate(640px,96px)}25.28%{transform:translate(656px,112px)}26.02%{transform:translate(688px,112px)}26.39%{transform:translate(688px,96px)}28.25%{transform:translate(768px,96px)}28.62%{transform:translate(768px,80px)}29.74%{transform:translate(816px,80px)}30.11%{transform:translate(816px,96px)}30.48%{transform:translate(800px,96px)}30.86%{transform:translate(800px,80px)}33.09%{transform:translate(704px,80px)}33.83%,55.39%{transform:translate(704px,48px)}34.2%{transform:translate(720px,48px)}35.32%{transform:translate(720px,0px)}36.06%{transform:translate(752px,0px)}36.43%{transform:translate(752px,16px)}37.92%{transform:translate(688px,16px)}38.66%{transform:translate(688px,-16px)}39.41%{transform:translate(656px,-16px)}39.78%{transform:translate(656px,0px)}40.15%{transform:translate(640px,0px)}41.26%{transform:translate(640px,48px)}42.38%{transform:translate(688px,48px)}42.75%{transform:translate(688px,64px)}43.12%{transform:translate(672px,64px)}43.87%{transform:translate(672px,32px)}44.24%{transform:translate(656px,32px)}44.61%,67.66%{transform:translate(656px,16px)}45.35%,69.89%{transform:translate(624px,16px)}45.72%{transform:translate(624px,32px)}46.84%{transform:translate(592px,48px)}49.07%{transform:translate(528px,80px)}49.81%{transform:translate(496px,80px)}50.56%{transform:translate(496px,48px)}55.76%{transform:translate(704px,32px)}58.74%{transform:translate(832px,32px)}59.48%{transform:translate(832px,0px)}62.83%{transform:translate(688px,0px)}64.68%{transform:translate(688px,80px)}65.06%{transform:translate(672px,80px)}65.43%{transform:translate(672px,96px)}68.77%{transform:translate(608px,16px)}69.14%{transform:translate(608px,0px)}69.52%{transform:translate(624px,0px)}71.38%{transform:translate(560px,16px)}72.86%{transform:translate(560px,80px)}73.23%{transform:translate(544px,80px)}73.61%{transform:translate(544px,64px)}74.35%{transform:translate(512px,64px)}75.09%{transform:translate(512px,96px)}76.95%{transform:translate(592px,96px)}79.18%{transform:translate(592px,0px)}80.67%{transform:translate(528px,0px)}81.04%{transform:translate(528px,16px)}84.39%{transform:translate(672px,16px)}84.76%{transform:translate(672px,0px)}99.26%{transform:translate(48px,0px)}}.s.s3{transform:translate(48px,-16px);animation-name:s3}</style><rect class="c" x="2" y="2" rx="2" ry="2"/><rect class="c" x="2" y="18" rx="2" ry="2"/><rect class="c" x="2" y="34" rx="2" ry="2"/><rect class="c" x="2" y="50" rx="2" ry="2"/><rect class="c" x="2" y="66" rx="2" ry="2"/><rect class="c" x="2" y="82" rx="2" ry="2"/><rect class="c" x="2" y="98" rx="2" ry="2"/><rect class="c" x="18" y="2" rx="2" ry="2"/><rect class="c" x="18" y="18" rx="2" ry="2"/><rect class="c" x="18" y="34" rx="2" ry="2"/><rect class="c" x="18" y="50" rx="2" ry="2"/><rect class="c" x="18" y="66" rx="2" ry="2"/><rect class="c" x="18" y="82" rx="2" ry="2"/><rect class="c" x="18" y="98" rx="2" ry="2"/><rect class="c" x="34" y="2" rx="2" ry="2"/><rect class="c" x="34" y="18" rx="2" ry="2"/><rect class="c" x="34" y="34" rx="2" ry="2"/><rect class="c" x="34" y="50" rx="2" ry="2"/><rect class="c" x="34" y="66" rx="2" ry="2"/><rect class="c" x="34" y="82" rx="2" ry="2"/><rect class="c" x="34" y="98" rx="2" ry="2"/><rect class="c" x="50" y="2" rx="2" ry="2"/><rect class="c" x="50" y="18" rx="2" ry="2"/><rect class="c" x="50" y="34" rx="2" ry="2"/><rect class="c" x="50" y="50" rx="2" ry="2"/><rect class="c" x="50" y="66" rx="2" ry="2"/><rect class="c" x="50" y="82" rx="2" ry="2"/><rect class="c" x="50" y="98" rx="2" ry="2"/><rect class="c" x="66" y="2" rx="2" ry="2"/><rect class="c" x="66" y="18" rx="2" ry="2"/><rect class="c" x="66" y="34" rx="2" ry="2"/><rect class="c" x="66" y="50" rx="2" ry="2"/><rect class="c" x="66" y="66" rx="2" ry="2"/><rect class="c" x="66" y="82" rx="2" ry="2"/><rect class="c" x="66" y="98" rx="2" ry="2"/><rect class="c" x="82" y="2" rx="2" ry="2"/><rect class="c" x="82" y="18" rx="2" ry="2"/><rect class="c" x="82" y="34" rx="2" ry="2"/><rect class="c" x="82" y="50" rx="2" ry="2"/><rect class="c" x="82" y="66" rx="2" ry="2"/><rect class="c" x="82" y="82" rx="2" ry="2"/><rect class="c" x="82" y="98" rx="2" ry="2"/><rect class="c" x="98" y="2" rx="2" ry="2"/><rect class="c" x="98" y="18" rx="2" ry="2"/><rect class="c" x="98" y="34" rx="2" ry="2"/><rect class="c" x="98" y="50" rx="2" ry="2"/><rect class="c" x="98" y="66" rx="2" ry="2"/><rect class="c" x="98" y="82" rx="2" ry="2"/><rect class="c" x="98" y="98" rx="2" ry="2"/><rect class="c" x="114" y="2" rx="2" ry="2"/><rect class="c" x="114" y="18" rx="2" ry="2"/><rect class="c" x="114" y="34" rx="2" ry="2"/><rect class="c" x="114" y="50" rx="2" ry="2"/><rect class="c" x="114" y="66" rx="2" ry="2"/><rect class="c" x="114" y="82" rx="2" ry="2"/><rect class="c" x="114" y="98" rx="2" ry="2"/><rect class="c" x="130" y="2" rx="2" ry="2"/><rect class="c" x="130" y="18" rx="2" ry="2"/><rect class="c" x="130" y="34" rx="2" ry="2"/><rect class="c" x="130" y="50" rx="2" ry="2"/><rect class="c" x="130" y="66" rx="2" ry="2"/><rect class="c" x="130" y="82" rx="2" ry="2"/><rect class="c" x="130" y="98" rx="2" ry="2"/><rect class="c" x="146" y="2" rx="2" ry="2"/><rect class="c" x="146" y="18" rx="2" ry="2"/><rect class="c" x="146" y="34" rx="2" ry="2"/><rect class="c" x="146" y="50" rx="2" ry="2"/><rect class="c" x="146" y="66" rx="2" ry="2"/><rect class="c" x="146" y="82" rx="2" ry="2"/><rect class="c" x="146" y="98" rx="2" ry="2"/><rect class="c" x="162" y="2" rx="2" ry="2"/><rect class="c" x="162" y="18" rx="2" ry="2"/><rect class="c" x="162" y="34" rx="2" ry="2"/><rect class="c" x="162" y="50" rx="2" ry="2"/><rect class="c" x="162" y="66" rx="2" ry="2"/><rect class="c" x="162" y="82" rx="2" ry="2"/><rect class="c" x="162" y="98" rx="2" ry="2"/><rect class="c" x="178" y="2" rx="2" ry="2"/><rect class="c" x="178" y="18" rx="2" ry="2"/><rect class="c" x="178" y="34" rx="2" ry="2"/><rect class="c" x="178" y="50" rx="2" ry="2"/><rect class="c" x="178" y="66" rx="2" ry="2"/><rect class="c" x="178" y="82" rx="2" ry="2"/><rect class="c" x="178" y="98" rx="2" ry="2"/><rect class="c" x="194" y="2" rx="2" ry="2"/><rect class="c" x="194" y="18" rx="2" ry="2"/><rect class="c" x="194" y="34" rx="2" ry="2"/><rect class="c" x="194" y="50" rx="2" ry="2"/><rect class="c" x="194" y="66" rx="2" ry="2"/><rect class="c" x="194" y="82" rx="2" ry="2"/><rect class="c" x="194" y="98" rx="2" ry="2"/><rect class="c" x="210" y="2" rx="2" ry="2"/><rect class="c" x="210" y="18" rx="2" ry="2"/><rect class="c" x="210" y="34" rx="2" ry="2"/><rect class="c" x="210" y="50" rx="2" ry="2"/><rect class="c" x="210" y="66" rx="2" ry="2"/><rect class="c" x="210" y="82" rx="2" ry="2"/><rect class="c" x="210" y="98" rx="2" ry="2"/><rect class="c" x="226" y="2" rx="2" ry="2"/><rect class="c" x="226" y="18" rx="2" ry="2"/><rect class="c" x="226" y="34" rx="2" ry="2"/><rect class="c" x="226" y="50" rx="2" ry="2"/><rect class="c" x="226" y="66" rx="2" ry="2"/><rect class="c" x="226" y="82" rx="2" ry="2"/><rect class="c" x="226" y="98" rx="2" ry="2"/><rect class="c" x="242" y="2" rx="2" ry="2"/><rect class="c" x="242" y="18" rx="2" ry="2"/><rect class="c" x="242" y="34" rx="2" ry="2"/><rect class="c" x="242" y="50" rx="2" ry="2"/><rect class="c" x="242" y="66" rx="2" ry="2"/><rect class="c" x="242" y="82" rx="2" ry="2"/><rect class="c" x="242" y="98" rx="2" ry="2"/><rect class="c" x="258" y="2" rx="2" ry="2"/><rect class="c" x="258" y="18" rx="2" ry="2"/><rect class="c" x="258" y="34" rx="2" ry="2"/><rect class="c" x="258" y="50" rx="2" ry="2"/><rect class="c" x="258" y="66" rx="2" ry="2"/><rect class="c" x="258" y="82" rx="2" ry="2"/><rect class="c" x="258" y="98" rx="2" ry="2"/><rect class="c" x="274" y="2" rx="2" ry="2"/><rect class="c" x="274" y="18" rx="2" ry="2"/><rect class="c" x="274" y="34" rx="2" ry="2"/><rect class="c" x="274" y="50" rx="2" ry="2"/><rect class="c" x="274" y="66" rx="2" ry="2"/><rect class="c" x="274" y="82" rx="2" ry="2"/><rect class="c" x="274" y="98" rx="2" ry="2"/><rect class="c" x="290" y="2" rx="2" ry="2"/><rect class="c" x="290" y="18" rx="2" ry="2"/><rect class="c" x="290" y="34" rx="2" ry="2"/><rect class="c" x="290" y="50" rx="2" ry="2"/><rect class="c" x="290" y="66" rx="2" ry="2"/><rect class="c" x="290" y="82" rx="2" ry="2"/><rect class="c" x="290" y="98" rx="2" ry="2"/><rect class="c" x="306" y="2" rx="2" ry="2"/><rect class="c" x="306" y="18" rx="2" ry="2"/><rect class="c" x="306" y="34" rx="2" ry="2"/><rect class="c" x="306" y="50" rx="2" ry="2"/><rect class="c" x="306" y="66" rx="2" ry="2"/><rect class="c" x="306" y="82" rx="2" ry="2"/><rect class="c" x="306" y="98" rx="2" ry="2"/><rect class="c" x="322" y="2" rx="2" ry="2"/><rect class="c" x="322" y="18" rx="2" ry="2"/><rect class="c" x="322" y="34" rx="2" ry="2"/><rect class="c" x="322" y="50" rx="2" ry="2"/><rect class="c" x="322" y="66" rx="2" ry="2"/><rect class="c" x="322" y="82" rx="2" ry="2"/><rect class="c" x="322" y="98" rx="2" ry="2"/><rect class="c" x="338" y="2" rx="2" ry="2"/><rect class="c" x="338" y="18" rx="2" ry="2"/><rect class="c" x="338" y="34" rx="2" ry="2"/><rect class="c" x="338" y="50" rx="2" ry="2"/><rect class="c" x="338" y="66" rx="2" ry="2"/><rect class="c" x="338" y="82" rx="2" ry="2"/><rect class="c" x="338" y="98" rx="2" ry="2"/><rect class="c" x="354" y="2" rx="2" ry="2"/><rect class="c" x="354" y="18" rx="2" ry="2"/><rect class="c" x="354" y="34" rx="2" ry="2"/><rect class="c" x="354" y="50" rx="2" ry="2"/><rect class="c" x="354" y="66" rx="2" ry="2"/><rect class="c" x="354" y="82" rx="2" ry="2"/><rect class="c" x="354" y="98" rx="2" ry="2"/><rect class="c" x="370" y="2" rx="2" ry="2"/><rect class="c" x="370" y="18" rx="2" ry="2"/><rect class="c" x="370" y="34" rx="2" ry="2"/><rect class="c" x="370" y="50" rx="2" ry="2"/><rect class="c" x="370" y="66" rx="2" ry="2"/><rect class="c" x="370" y="82" rx="2" ry="2"/><rect class="c" x="370" y="98" rx="2" ry="2"/><rect class="c" x="386" y="2" rx="2" ry="2"/><rect class="c" x="386" y="18" rx="2" ry="2"/><rect class="c" x="386" y="34" rx="2" ry="2"/><rect class="c" x="386" y="50" rx="2" ry="2"/><rect class="c" x="386" y="66" rx="2" ry="2"/><rect class="c" x="386" y="82" rx="2" ry="2"/><rect class="c" x="386" y="98" rx="2" ry="2"/><rect class="c" x="402" y="2" rx="2" ry="2"/><rect class="c" x="402" y="18" rx="2" ry="2"/><rect class="c" x="402" y="34" rx="2" ry="2"/><rect class="c" x="402" y="50" rx="2" ry="2"/><rect class="c" x="402" y="66" rx="2" ry="2"/><rect class="c" x="402" y="82" rx="2" ry="2"/><rect class="c" x="402" y="98" rx="2" ry="2"/><rect class="c" x="418" y="2" rx="2" ry="2"/><rect class="c" x="418" y="18" rx="2" ry="2"/><rect class="c" x="418" y="34" rx="2" ry="2"/><rect class="c" x="418" y="50" rx="2" ry="2"/><rect class="c" x="418" y="66" rx="2" ry="2"/><rect class="c" x="418" y="82" rx="2" ry="2"/><rect class="c" x="418" y="98" rx="2" ry="2"/><rect class="c" x="434" y="2" rx="2" ry="2"/><rect class="c" x="434" y="18" rx="2" ry="2"/><rect class="c" x="434" y="34" rx="2" ry="2"/><rect class="c" x="434" y="50" rx="2" ry="2"/><rect class="c" x="434" y="66" rx="2" ry="2"/><rect class="c" x="434" y="82" rx="2" ry="2"/><rect class="c" x="434" y="98" rx="2" ry="2"/><rect class="c" x="450" y="2" rx="2" ry="2"/><rect class="c" x="450" y="18" rx="2" ry="2"/><rect class="c" x="450" y="34" rx="2" ry="2"/><rect class="c" x="450" y="50" rx="2" ry="2"/><rect class="c" x="450" y="66" rx="2" ry="2"/><rect class="c" x="450" y="82" rx="2" ry="2"/><rect class="c" x="450" y="98" rx="2" ry="2"/><rect class="c" x="466" y="2" rx="2" ry="2"/><rect class="c" x="466" y="18" rx="2" ry="2"/><rect class="c" x="466" y="34" rx="2" ry="2"/><rect class="c" x="466" y="50" rx="2" ry="2"/><rect class="c" x="466" y="66" rx="2" ry="2"/><rect class="c" x="466" y="82" rx="2" ry="2"/><rect class="c" x="466" y="98" rx="2" ry="2"/><rect class="c" x="482" y="2" rx="2" ry="2"/><rect class="c" x="482" y="18" rx="2" ry="2"/><rect class="c" x="482" y="34" rx="2" ry="2"/><rect class="c" x="482" y="50" rx="2" ry="2"/><rect class="c" x="482" y="66" rx="2" ry="2"/><rect class="c" x="482" y="82" rx="2" ry="2"/><rect class="c" x="482" y="98" rx="2" ry="2"/><rect class="c" x="498" y="2" rx="2" ry="2"/><rect class="c" x="498" y="18" rx="2" ry="2"/><rect class="c" x="498" y="34" rx="2" ry="2"/><rect class="c" x="498" y="50" rx="2" ry="2"/><rect class="c" x="498" y="66" rx="2" ry="2"/><rect class="c" x="498" y="82" rx="2" ry="2"/><rect class="c" x="498" y="98" rx="2" ry="2"/><rect class="c" x="514" y="2" rx="2" ry="2"/><rect class="c" x="514" y="18" rx="2" ry="2"/><rect class="c" x="514" y="34" rx="2" ry="2"/><rect class="c c0" x="514" y="50" rx="2" ry="2"/><rect class="c c1" x="514" y="66" rx="2" ry="2"/><rect class="c c2" x="514" y="82" rx="2" ry="2"/><rect class="c c3" x="514" y="98" rx="2" ry="2"/><rect class="c c4" x="530" y="2" rx="2" ry="2"/><rect class="c" x="530" y="18" rx="2" ry="2"/><rect class="c" x="530" y="34" rx="2" ry="2"/><rect class="c" x="530" y="50" rx="2" ry="2"/><rect class="c" x="530" y="66" rx="2" ry="2"/><rect class="c" x="530" y="82" rx="2" ry="2"/><rect class="c c5" x="530" y="98" rx="2" ry="2"/><rect class="c c6" x="546" y="2" rx="2" ry="2"/><rect class="c" x="546" y="18" rx="2" ry="2"/><rect class="c" x="546" y="34" rx="2" ry="2"/><rect class="c" x="546" y="50" rx="2" ry="2"/><rect class="c" x="546" y="66" rx="2" ry="2"/><rect class="c" x="546" y="82" rx="2" ry="2"/><rect class="c" x="546" y="98" rx="2" ry="2"/><rect class="c c7" x="562" y="2" rx="2" ry="2"/><rect class="c" x="562" y="18" rx="2" ry="2"/><rect class="c" x="562" y="34" rx="2" ry="2"/><rect class="c" x="562" y="50" rx="2" ry="2"/><rect class="c" x="562" y="66" rx="2" ry="2"/><rect class="c c8" x="562" y="82" rx="2" ry="2"/><rect class="c c9" x="562" y="98" rx="2" ry="2"/><rect class="c" x="578" y="2" rx="2" ry="2"/><rect class="c" x="578" y="18" rx="2" ry="2"/><rect class="c" x="578" y="34" rx="2" ry="2"/><rect class="c" x="578" y="50" rx="2" ry="2"/><rect class="c" x="578" y="66" rx="2" ry="2"/><rect class="c" x="578" y="82" rx="2" ry="2"/><rect class="c ca" x="578" y="98" rx="2" ry="2"/><rect class="c cb" x="594" y="2" rx="2" ry="2"/><rect class="c" x="594" y="18" rx="2" ry="2"/><rect class="c" x="594" y="34" rx="2" ry="2"/><rect class="c cc" x="594" y="50" rx="2" ry="2"/><rect class="c" x="594" y="66" rx="2" ry="2"/><rect class="c" x="594" y="82" rx="2" ry="2"/><rect class="c" x="594" y="98" rx="2" ry="2"/><rect class="c cd" x="610" y="2" rx="2" ry="2"/><rect class="c ce" x="610" y="18" rx="2" ry="2"/><rect class="c" x="610" y="34" rx="2" ry="2"/><rect class="c" x="610" y="50" rx="2" ry="2"/><rect class="c" x="610" y="66" rx="2" ry="2"/><rect class="c cf" x="610" y="82" rx="2" ry="2"/><rect class="c" x="610" y="98" rx="2" ry="2"/><rect class="c" x="626" y="2" rx="2" ry="2"/><rect class="c" x="626" y="18" rx="2" ry="2"/><rect class="c" x="626" y="34" rx="2" ry="2"/><rect class="c" x="626" y="50" rx="2" ry="2"/><rect class="c" x="626" y="66" rx="2" ry="2"/><rect class="c" x="626" y="82" rx="2" ry="2"/><rect class="c cg" x="626" y="98" rx="2" ry="2"/><rect class="c ch" x="642" y="2" rx="2" ry="2"/><rect class="c" x="642" y="18" rx="2" ry="2"/><rect class="c" x="642" y="34" rx="2" ry="2"/><rect class="c" x="642" y="50" rx="2" ry="2"/><rect class="c" x="642" y="66" rx="2" ry="2"/><rect class="c" x="642" y="82" rx="2" ry="2"/><rect class="c" x="642" y="98" rx="2" ry="2"/><rect class="c ci" x="658" y="2" rx="2" ry="2"/><rect class="c cj" x="658" y="18" rx="2" ry="2"/><rect class="c" x="658" y="34" rx="2" ry="2"/><rect class="c" x="658" y="50" rx="2" ry="2"/><rect class="c ck" x="658" y="66" rx="2" ry="2"/><rect class="c cl" x="658" y="82" rx="2" ry="2"/><rect class="c cm" x="658" y="98" rx="2" ry="2"/><rect class="c cn" x="674" y="2" rx="2" ry="2"/><rect class="c co" x="674" y="18" rx="2" ry="2"/><rect class="c cp" x="674" y="34" rx="2" ry="2"/><rect class="c cq" x="674" y="50" rx="2" ry="2"/><rect class="c cr" x="674" y="66" rx="2" ry="2"/><rect class="c" x="674" y="82" rx="2" ry="2"/><rect class="c cs" x="674" y="98" rx="2" ry="2"/><rect class="c ct" x="690" y="2" rx="2" ry="2"/><rect class="c cu" x="690" y="18" rx="2" ry="2"/><rect class="c cv" x="690" y="34" rx="2" ry="2"/><rect class="c cw" x="690" y="50" rx="2" ry="2"/><rect class="c cx" x="690" y="66" rx="2" ry="2"/><rect class="c cy" x="690" y="82" rx="2" ry="2"/><rect class="c cz" x="690" y="98" rx="2" ry="2"/><rect class="c" x="706" y="2" rx="2" ry="2"/><rect class="c c10" x="706" y="18" rx="2" ry="2"/><rect class="c c11" x="706" y="34" rx="2" ry="2"/><rect class="c c12" x="706" y="50" rx="2" ry="2"/><rect class="c" x="706" y="66" rx="2" ry="2"/><rect class="c c13" x="706" y="82" rx="2" ry="2"/><rect class="c" x="706" y="98" rx="2" ry="2"/><rect class="c c14" x="722" y="2" rx="2" ry="2"/><rect class="c" x="722" y="18" rx="2" ry="2"/><rect class="c" x="722" y="34" rx="2" ry="2"/><rect class="c" x="722" y="50" rx="2" ry="2"/><rect class="c" x="722" y="66" rx="2" ry="2"/><rect class="c" x="722" y="82" rx="2" ry="2"/><rect class="c c15" x="722" y="98" rx="2" ry="2"/><rect class="c c16" x="738" y="2" rx="2" ry="2"/><rect class="c" x="738" y="18" rx="2" ry="2"/><rect class="c" x="738" y="34" rx="2" ry="2"/><rect class="c" x="738" y="50" rx="2" ry="2"/><rect class="c" x="738" y="66" rx="2" ry="2"/><rect class="c" x="738" y="82" rx="2" ry="2"/><rect class="c" x="738" y="98" rx="2" ry="2"/><rect class="c c17" x="754" y="2" rx="2" ry="2"/><rect class="c c18" x="754" y="18" rx="2" ry="2"/><rect class="c" x="754" y="34" rx="2" ry="2"/><rect class="c" x="754" y="50" rx="2" ry="2"/><rect class="c" x="754" y="66" rx="2" ry="2"/><rect class="c" x="754" y="82" rx="2" ry="2"/><rect class="c c19" x="754" y="98" rx="2" ry="2"/><rect class="c" x="770" y="2" rx="2" ry="2"/><rect class="c" x="770" y="18" rx="2" ry="2"/><rect class="c" x="770" y="34" rx="2" ry="2"/><rect class="c" x="770" y="50" rx="2" ry="2"/><rect class="c" x="770" y="66" rx="2" ry="2"/><rect class="c c1a" x="770" y="82" rx="2" ry="2"/><rect class="c" x="770" y="98" rx="2" ry="2"/><rect class="c" x="786" y="2" rx="2" ry="2"/><rect class="c" x="786" y="18" rx="2" ry="2"/><rect class="c" x="786" y="34" rx="2" ry="2"/><rect class="c" x="786" y="50" rx="2" ry="2"/><rect class="c" x="786" y="66" rx="2" ry="2"/><rect class="c" x="786" y="82" rx="2" ry="2"/><rect class="c" x="786" y="98" rx="2" ry="2"/><rect class="c" x="802" y="2" rx="2" ry="2"/><rect class="c" x="802" y="18" rx="2" ry="2"/><rect class="c" x="802" y="34" rx="2" ry="2"/><rect class="c" x="802" y="50" rx="2" ry="2"/><rect class="c" x="802" y="66" rx="2" ry="2"/><rect class="c" x="802" y="82" rx="2" ry="2"/><rect class="c" x="802" y="98" rx="2" ry="2"/><rect class="c" x="818" y="2" rx="2" ry="2"/><rect class="c" x="818" y="18" rx="2" ry="2"/><rect class="c" x="818" y="34" rx="2" ry="2"/><rect class="c" x="818" y="50" rx="2" ry="2"/><rect class="c" x="818" y="66" rx="2" ry="2"/><rect class="c" x="818" y="82" rx="2" ry="2"/><rect class="c c1b" x="818" y="98" rx="2" ry="2"/><rect class="c c1c" x="834" y="2" rx="2" ry="2"/><rect class="c" x="834" y="18" rx="2" ry="2"/><rect class="c" x="834" y="34" rx="2" ry="2"/><rect class="c" x="834" y="50" rx="2" ry="2"/><rect class="c" x="834" y="66" rx="2" ry="2"/><rect class="u u0" height="12" width="398.6" x="0.0" y="144"/><rect class="u u1" height="12" width="17.9" x="398.0" y="144"/><rect class="u u2" height="12" width="17.9" x="415.3" y="144"/><rect class="u u3" height="12" width="17.9" x="432.7" y="144"/><rect class="u u4" height="12" width="17.9" x="450.0" y="144"/><rect class="u u5" height="12" width="121.7" x="467.3" y="144"/><rect class="u u6" height="12" width="139.0" x="588.4" y="144"/><rect class="u u7" height="12" width="121.7" x="726.9" y="144"/><rect class="s s0" x="0.8" y="0.8" width="14.4" height="14.4" rx="4.5" ry="4.5"/><rect class="s s1" x="1.8" y="1.8" width="12.3" height="12.3" rx="4.1" ry="4.1"/><rect class="s s2" x="2.6" y="2.6" width="10.8" height="10.8" rx="3.6" ry="3.6"/><rect class="s s3" x="3.0" y="3.0" width="9.9" height="9.9" rx="3.3" ry="3.3"/></svg>